<svg width="45" height="65" viewBox="0 0 45 65" fill="none" xmlns="http://www.w3.org/2000/svg">
<path id="Captura de pantalla 2024-08-31 a la(s) 3.18.11&#226;&#128;&#175;p.&#194;&#160;m. (Traced)" fill-rule="evenodd" clip-rule="evenodd" d="M27.2137 0.299546C26.7169 0.656278 26.648 0.92678 26.648 2.51712V4.32843L22.6257 8.34499C19.1046 11.861 18.6034 12.2778 18.6034 11.6911C18.6034 10.4969 18.0515 10.2305 15.578 10.2305C12.7214 10.2305 11.0599 10.819 9.33159 12.4425C7.28925 14.3609 5.94704 18.1645 6.87394 19.4064C7.22866 19.8818 7.58891 19.9133 13.4583 19.9847L19.6673 20.0603L22.9807 16.7794L26.2938 13.4986H27.728H29.162V16.216C29.162 19.2511 29.3888 19.8464 30.5447 19.8464C31.7547 19.8464 31.9274 19.2994 31.9274 15.4691C31.9274 12.2806 31.998 11.7492 32.8135 8.79223C33.8189 5.14748 33.8023 4.37066 32.6823 2.6046C31.4407 0.646473 28.4722 -0.604728 27.2137 0.299546ZM30.5862 4.27739L30.9718 5.02304L24.8506 11.1518C19.8153 16.1928 18.714 17.1836 18.6438 16.7341C18.5772 16.308 19.7339 15.011 23.8945 10.8471L29.2306 5.50647L29.3543 4.21932C29.4587 3.13555 29.5353 2.97943 29.8395 3.23209C30.0381 3.397 30.3742 3.86737 30.5862 4.27739ZM29.6648 10.4819C29.6648 10.6201 29.5449 10.7333 29.3986 10.7333C29.2523 10.7333 29.2022 10.6201 29.2877 10.4819C29.3732 10.3436 29.4929 10.2305 29.5539 10.2305C29.615 10.2305 29.6648 10.3436 29.6648 10.4819ZM15.838 15.007V17.2696H12.6684H9.49852L9.67098 16.5782C10.1652 14.5977 12.6996 12.7869 15.021 12.7555L15.838 12.7444V15.007ZM18.2149 23.4175C17.6649 23.9673 17.5978 24.2483 17.5978 26.0011C17.5978 28.3132 17.9766 29.0852 19.1117 29.0852C20.1276 29.0852 20.3631 28.4967 20.3631 25.9594C20.3631 24.141 20.2849 23.7277 19.8603 23.3031C19.2095 22.6522 18.9629 22.6693 18.2149 23.4175ZM26.2853 24.1133C26.0098 24.5065 25.8939 25.271 25.8939 26.6969C25.8939 28.965 26.2775 29.8394 27.2728 29.8394C28.4003 29.8394 28.6592 29.2567 28.6592 26.7181C28.6592 24.7785 28.5818 24.3167 28.1994 23.9706C27.5594 23.3911 26.7486 23.4517 26.2853 24.1133ZM22.1317 27.8116C21.9887 28.0791 21.8715 28.871 21.8715 29.5714V30.845H11.4385C1.3407 30.845 0.989497 30.8611 0.502793 31.3478C0.0105587 31.84 0 32.1857 0 47.6886C0 63.1914 0.0105587 63.5371 0.502793 64.0294C0.997793 64.5244 1.3407 64.5321 22.5 64.5321C43.6593 64.5321 44.0022 64.5244 44.4972 64.0294C44.9894 63.5371 45 63.1914 45 47.6886C45 32.1857 44.9894 31.84 44.4972 31.3478C44.0118 30.8623 43.6593 30.845 34.3156 30.845H24.6369V29.6441C24.6369 28.9638 24.4672 28.2006 24.2454 27.8843C23.7432 27.1671 22.4995 27.1243 22.1317 27.8116ZM42.2346 47.6886V61.7668H22.5H2.76536V47.6886V33.6104H22.5H42.2346V47.6886ZM10.35 36.2938C10.0277 36.3609 9.33637 36.8438 8.81321 37.367C7.1462 39.034 7.18844 41.0856 8.92408 42.773C9.93947 43.7602 9.97693 43.8545 10.129 45.8031C10.4078 49.3704 11.7983 52.2783 14.3017 54.5291C15.8946 55.9613 18.1066 57.1021 18.8394 56.8693C19.4973 56.6607 19.934 55.8587 19.7339 55.228C19.6489 54.9602 18.9088 54.384 18.089 53.9471C14.9817 52.2909 13.0704 49.3362 12.8703 45.8795L12.7576 43.9347L13.8844 42.8396C15.4875 41.2815 15.7216 39.5307 14.5508 37.8544C13.6704 36.5937 11.9599 35.9581 10.35 36.2938ZM32.4729 36.2938C31.5752 36.4811 30.009 38.19 29.8222 39.1868C29.5477 40.6502 29.9082 41.6661 31.1206 42.8444L32.2424 43.9347L32.1297 45.8795C31.9296 49.3362 30.0183 52.2909 26.911 53.9471C25.3461 54.7812 24.936 55.3858 25.377 56.2097C25.8232 57.0433 26.5668 57.089 28.0317 56.3723C31.8814 54.4888 34.517 50.4253 34.8712 45.8275C35.0238 43.848 35.057 43.7638 36.081 42.7682C37.6072 41.2845 37.8226 39.4993 36.6737 37.8544C35.7934 36.5937 34.0829 35.9581 32.4729 36.2938ZM12.2682 39.1914C12.7946 39.7178 12.636 40.1552 12.0042 39.9192C11.6932 39.803 11.1839 39.804 10.8729 39.9212C10.4707 40.0728 10.3073 40.0416 10.3073 39.8136C10.3073 39.3296 10.846 38.8897 11.4385 38.8897C11.7289 38.8897 12.1022 39.0254 12.2682 39.1914ZM34.3911 39.1914C34.9175 39.7178 34.7589 40.1552 34.1271 39.9192C33.8159 39.803 33.307 39.804 32.9958 39.9212C32.5936 40.0728 32.4302 40.0416 32.4302 39.8136C32.4302 39.3296 32.9689 38.8897 33.5615 38.8897C33.8518 38.8897 34.2251 39.0254 34.3911 39.1914ZM21.6201 55.4819C21.3436 55.7584 21.1173 56.1544 21.1173 56.3618C21.1173 56.5692 21.3436 56.9651 21.6201 57.2416C21.8966 57.5182 22.2926 57.7444 22.5 57.7444C22.7074 57.7444 23.1034 57.5182 23.3799 57.2416C23.6564 56.9651 23.8827 56.5692 23.8827 56.3618C23.8827 56.1544 23.6564 55.7584 23.3799 55.4819C23.1034 55.2053 22.7074 54.9791 22.5 54.9791C22.2926 54.9791 21.8966 55.2053 21.6201 55.4819Z" fill="black"/>
</svg>
