<svg width="48" height="48" viewBox="0 0 48 48" xmlns="http://www.w3.org/2000/svg">
  <!-- Robot head -->
  <rect x="14" y="12" width="20" height="18" rx="4" fill="#4A90E2" stroke="#2E5A8B" stroke-width="2"/>
  
  <!-- Robot antenna -->
  <circle cx="24" cy="8" r="2" fill="#FF6B6B"/>
  <line x1="24" y1="10" x2="24" y2="12" stroke="#2E5A8B" stroke-width="2"/>
  
  <!-- Robot eyes -->
  <circle cx="19" cy="18" r="2" fill="#FFFFFF"/>
  <circle cx="29" cy="18" r="2" fill="#FFFFFF"/>
  <circle cx="19" cy="18" r="1" fill="#2E5A8B"/>
  <circle cx="29" cy="18" r="1" fill="#2E5A8B"/>
  
  <!-- Robot mouth -->
  <rect x="20" y="23" width="8" height="3" rx="1.5" fill="#FFFFFF"/>
  <line x1="21" y1="24.5" x2="22" y2="24.5" stroke="#2E5A8B" stroke-width="1"/>
  <line x1="23" y1="24.5" x2="24" y2="24.5" stroke="#2E5A8B" stroke-width="1"/>
  <line x1="25" y1="24.5" x2="26" y2="24.5" stroke="#2E5A8B" stroke-width="1"/>
  <line x1="27" y1="24.5" x2="28" y2="24.5" stroke="#2E5A8B" stroke-width="1"/>
  
  <!-- Robot body -->
  <rect x="16" y="30" width="16" height="12" rx="2" fill="#5A9BD4" stroke="#2E5A8B" stroke-width="2"/>
  
  <!-- Robot arms -->
  <rect x="10" y="32" width="6" height="8" rx="3" fill="#4A90E2" stroke="#2E5A8B" stroke-width="1"/>
  <rect x="32" y="32" width="6" height="8" rx="3" fill="#4A90E2" stroke="#2E5A8B" stroke-width="1"/>
  
  <!-- Robot chest panel -->
  <rect x="19" y="33" width="10" height="6" rx="1" fill="#FFFFFF" opacity="0.3"/>
  <circle cx="21" cy="35" r="1" fill="#FF6B6B"/>
  <circle cx="24" cy="35" r="1" fill="#4CAF50"/>
  <circle cx="27" cy="35" r="1" fill="#FFC107"/>
</svg>
