<svg width="45" height="61" viewBox="0 0 45 61" fill="none" xmlns="http://www.w3.org/2000/svg">
<path id="Captura de pantalla 2024-08-31 a la(s) 3.17.05&#226;&#128;&#175;p.&#194;&#160;m. (Traced)" fill-rule="evenodd" clip-rule="evenodd" d="M26.2695 0.249564C25.0861 0.634229 23.3349 1.62868 22.8837 2.17218C22.3871 2.77084 20.6235 3.58396 18.1406 4.35968C14.4476 5.51344 14.5707 5.41165 13.2905 8.36872C12.6116 9.93697 12.1625 10.4708 11.4069 10.6078C11.1466 10.6552 10.5713 11.2545 10.1287 11.9398C9.4493 12.9918 9.16287 13.2264 8.28915 13.4463C5.05843 14.2599 3.10718 18.2838 4.57198 21.1126C4.83947 21.6291 5.13158 22.3483 5.22106 22.7107C5.42677 23.5437 6.29457 23.9826 6.99502 23.6079C7.80033 23.1768 7.85288 22.3452 7.16877 20.8513C6.41861 19.2127 6.40464 18.5419 7.09538 17.3223C7.5371 16.5426 7.86542 16.298 9.00332 15.902C10.3405 15.4366 11.8453 14.2474 12.1124 13.4451C12.1836 13.2314 12.5849 12.8966 13.0041 12.7014C14.0052 12.235 15.1653 10.6691 15.8009 8.92572L16.312 7.52388L18.0021 7.02156C21.1881 6.07493 22.882 5.32336 24.2453 4.2515C26.5568 2.43399 28.2993 2.01618 29.3181 3.03501L29.8306 3.54751L28.9039 3.82446C27.3314 4.29458 25.9369 5.12641 24.5933 6.39521C23.28 7.63561 21.947 9.64652 21.943 10.3934C21.9416 10.6942 21.7489 10.8076 21.2397 10.8076C19.9813 10.8076 17.9664 11.7441 16.6647 12.9336C12.2584 16.9606 12.9508 22.9488 18.495 28.7633C20.1811 30.5318 21.4606 31.2732 22.4758 31.0701C24.7807 30.6092 28.706 25.7861 29.985 21.8438L30.2825 20.9261L31.5546 21.0572C33.0176 21.2083 33.8953 21.751 34.809 23.0693C35.6529 24.287 36.2447 24.5247 39.0358 24.7673C40.3212 24.8788 41.5278 25.0989 41.7174 25.2561C42.2486 25.6971 42.1307 26.5547 41.3258 28.101C40.5134 29.6624 40.5163 30.3055 41.345 32.1559C41.6542 32.8467 41.7238 33.2794 41.5716 33.5639C41.1904 34.2757 41.3308 35.6212 41.9434 37.1287C42.2689 37.9297 42.5352 38.7265 42.5352 38.8993C42.5352 39.4151 41.8701 39.2619 40.302 38.3851C38.5181 37.3874 37.3021 37.301 36.1361 38.0893C35.1513 38.7547 34.9466 39.492 35.3289 40.9954C35.6368 42.2058 35.4796 42.7644 34.831 42.7644C34.2842 42.7644 33.1056 43.9411 32.8369 44.7552C32.6286 45.3858 32.653 45.7579 32.9562 46.5822C33.8908 49.1231 33.8865 49.0864 33.4074 50.5226C33.063 51.5558 32.9543 52.5647 32.9503 54.7674C32.947 56.7288 32.8521 57.75 32.6549 57.9472C32.2546 58.3475 32.2047 58.2611 31.5752 56.0878C30.4762 52.2937 29.3683 51.6117 25.3254 52.2404C23.1126 52.5849 22.6351 52.4634 22.4107 51.5005C22.3378 51.1873 21.8826 50.6736 21.3992 50.3588C20.8001 49.9687 20.5206 49.611 20.5206 49.2344C20.5206 48.6132 19.7581 47.7355 19.2186 47.7355C19.0233 47.7355 18.8635 47.5336 18.8635 47.2867C18.8635 46.2304 15.1416 44.0197 11.8027 43.0925C10.3673 42.6939 10.2719 42.6943 9.51274 43.1032L8.72068 43.5297L7.04591 42.2193C6.12461 41.4985 4.84326 40.7336 4.19844 40.5194C2.93272 40.099 2.56628 39.5569 3.00018 38.7464C3.14292 38.4796 3.22861 38.0814 3.19074 37.8615C3.13866 37.5595 3.36472 37.4189 4.1137 37.2873C4.65909 37.1911 5.38605 36.9291 5.72882 36.7045C6.5043 36.1962 7.73263 34.0963 7.7357 33.2732C7.73807 32.6021 7.09231 31.8754 6.49365 31.8754C6.08176 31.8754 5.13395 32.9461 5.13395 33.4115C5.13395 34.0499 3.98232 34.9528 3.16825 34.9528C2.72298 34.9528 2.00407 35.1942 1.55905 35.4929C0.913519 35.9266 0.739769 36.2135 0.679169 36.9464C0.637744 37.4487 0.441979 38.1068 0.244084 38.4086C-0.278114 39.2056 0.0414537 40.276 1.16562 41.4956C1.78345 42.1658 2.45715 42.6221 3.09226 42.8002C3.62937 42.9507 4.44155 43.359 4.89723 43.7075C7.89549 46.001 8.02473 46.0784 8.84378 46.0784C9.30206 46.0784 9.96676 45.9073 10.3209 45.698C10.934 45.3359 11.0547 45.3534 12.8429 46.0657C15.1023 46.9657 16.4964 47.8418 16.4964 48.3618C16.4964 48.5725 16.8465 49.0769 17.2742 49.4829C17.7022 49.8889 18.1965 50.5723 18.3728 51.0015C18.5492 51.4309 18.9963 51.9386 19.3663 52.1299C19.7363 52.3212 20.2 52.7891 20.3967 53.1695C21.2257 54.7726 22.8236 55.2474 25.6223 54.7229C28.4338 54.1962 28.4409 54.2019 29.4886 57.8064C30.1024 59.9181 30.8007 60.6365 32.2397 60.6365C33.4642 60.6365 34.4192 60.0208 35.019 58.8444C35.3457 58.2038 35.433 57.4271 35.4333 55.1627C35.4337 53.1527 35.5452 51.9822 35.8054 51.2569C36.3101 49.851 36.2684 48.3048 35.6844 46.7685C35.4164 46.0635 35.1972 45.4564 35.1972 45.419C35.197 45.3818 35.6704 45.1486 36.2487 44.9005C36.916 44.6146 37.4354 44.1892 37.669 43.7371C38.0861 42.9306 38.1505 41.435 37.8068 40.531C37.4889 39.6951 37.7952 39.7451 39.5228 40.8115C40.7113 41.5451 41.1791 41.6992 42.2171 41.6992C43.3202 41.6992 43.5673 41.605 44.2469 40.9249C44.9135 40.2581 45.0177 39.9955 44.9978 39.0312C44.9845 38.3923 44.7029 37.2742 44.3414 36.4266C43.8573 35.2915 43.7652 34.8351 43.9501 34.4893C44.3258 33.7876 44.2391 32.7499 43.6835 31.2981L43.1746 29.9684L43.8611 28.6139C44.7187 26.9212 44.798 25.1536 44.0616 24.1402C43.262 23.0402 41.747 22.4444 39.2896 22.2638L37.109 22.1035L36.489 21.209C35.4221 19.6694 33.8996 18.8082 31.7161 18.5097L30.4842 18.3411L30.104 17.0006C29.3993 14.516 27.6777 12.5127 25.3699 11.492L24.3094 11.0228L24.7597 10.1401C25.271 9.13781 27.1903 7.25568 28.2702 6.69726C28.6676 6.49156 29.4422 6.25176 29.9914 6.16394C31.4931 5.92367 32.238 5.16878 32.238 3.88696C32.238 1.16471 29.183 -0.697067 26.2695 0.249564ZM24.7168 13.9195C27.8252 15.3973 28.719 19.1493 26.8591 22.9124C25.9359 24.7803 23.6585 27.6586 22.6188 28.2707C22.0365 28.6139 21.9498 28.6035 21.3169 28.1161C20.0751 27.1598 18.3778 24.915 17.3722 22.8982C16.4859 21.1204 16.378 20.7223 16.378 19.2291C16.378 17.3531 16.8166 16.205 17.9766 15.0449C19.817 13.2044 22.33 12.7849 24.7168 13.9195ZM20.6188 15.8783C19.1033 16.5383 18.1915 18.423 18.6192 20.0116C19.3666 22.7872 22.7324 23.6417 24.6998 21.5555C27.3337 18.7627 24.1539 14.3392 20.6188 15.8783ZM22.8768 18.4879C23.6166 19.3791 22.6669 20.5753 21.6042 20.0909C20.5532 19.6121 20.91 18.1458 22.0777 18.1458C22.361 18.1458 22.7208 18.2997 22.8768 18.4879ZM5.59554 27.1631C4.99807 28.2797 6.19728 29.522 7.24191 28.8682C7.71606 28.5716 7.864 27.4599 7.48928 27.0085C7.05562 26.4861 5.90777 26.5798 5.59554 27.1631Z" fill="black"/>
</svg>
