<svg width="1168" height="581" viewBox="0 0 1168 581" fill="none" xmlns="http://www.w3.org/2000/svg">
<path fill-rule="evenodd" clip-rule="evenodd" d="M938.372 1.0558C934.004 2.6838 926.824 7.5918 923.236 11.4028C911.358 24.0198 903.602 52.5958 906.24 74.0258C907.767 86.4418 909.994 93.4818 913.502 96.9898L916.409 99.8968L931.325 99.5748L946.241 99.2528L950.014 96.1958C958.01 89.7178 967.367 68.8868 969.543 52.7178C971.413 38.8208 967.873 20.9168 961.176 10.4078C955.638 1.71681 946.574 -2.0002 938.372 1.0558ZM221.919 60.8088C137.421 65.7028 61.4097 116.535 23.8707 193.253C7.31772 227.082 0.0847262 258.292 0.000726236 296.253C-0.0742738 330.129 5.65673 358.919 18.6137 389.753C41.5237 444.272 88.8997 491.648 143.419 514.558C244.932 557.216 359.985 526.275 426.419 438.451C432.329 430.638 434.428 426.188 434.397 421.535C434.369 417.413 431.431 410.941 428.265 408.03C423.519 403.666 344.093 358.519 340.256 358.004C331.984 356.895 329.777 358.112 317.445 370.59C305.055 383.127 296.448 389.454 283.26 395.722C255.828 408.757 222.374 409.535 194.168 397.792C181.407 392.48 170.718 385.169 159.841 374.312C138.775 353.285 128.899 331.089 127.705 302.089C126.836 280.946 130.044 265.446 138.976 247.648C165.798 194.196 231.898 172.345 285.419 199.238C297.55 205.334 306.54 212.159 317.675 223.731C328.99 235.489 332.847 237.623 340.328 236.263C344 235.596 423.988 190.245 428.301 186.385C434.011 181.274 435.977 171.232 432.573 164.556C429.511 158.549 417.622 143.908 406.453 132.389C358.187 82.6098 291.58 56.7738 221.919 60.8088ZM822.074 82.2118C810.496 86.3398 807.569 99.3838 813.942 118.45C819.07 133.788 829.529 146.764 844.419 156.259C857.339 164.498 862.093 164.692 874.919 157.501C885.346 151.655 888.419 148.755 888.419 144.76C888.419 136.565 881.754 120.18 874 109.314C868.395 101.459 856.303 90.0958 849.759 86.5348C843.992 83.3958 834.573 80.7328 829.459 80.7968C827.512 80.8208 824.189 81.4578 822.074 82.2118ZM1017.42 83.9418C1011.77 86.6868 1000.97 97.6018 996.598 104.977C987.817 119.803 984.423 141.879 988.479 157.788C989.773 162.865 994.548 166.88 1005.68 172.252C1013.15 175.855 1016.09 176.807 1018.18 176.297C1023.23 175.069 1032.69 163.891 1038.25 152.58C1044.82 139.203 1046.45 132.882 1047.07 118.253C1047.51 107.914 1047.3 105.459 1045.56 100.52C1039.9 84.4568 1029.26 78.1888 1017.42 83.9418ZM920.49 115.505C913.565 119.036 912.919 121.005 912.919 138.576C912.919 152.392 913.168 154.787 915.014 158.753C921.911 173.565 940.356 177.448 950.277 166.176C955.198 160.586 957.619 152.693 957.619 142.238C957.619 127.663 954.359 118.053 948.389 115.032C944.404 113.016 924.717 113.349 920.49 115.505ZM564.926 120.368C546.658 124.784 528.638 139.158 520.564 155.753C514.992 167.208 513.054 175.205 513.054 186.753C513.054 198.301 514.992 206.298 520.564 217.753C523.915 224.639 526.351 227.894 533.399 234.897C547.106 248.516 561.962 254.707 581.009 254.738C608.03 254.782 631.324 240.006 643.003 215.414C661.057 177.397 639.041 131.27 597.81 120.725C588.591 118.367 573.864 118.208 564.926 120.368ZM1087.13 159.186C1079.75 161.312 1068.11 167.16 1059.67 172.977C1039.65 186.79 1019.85 213.505 1018.62 228.366C1018.1 234.612 1019.61 237.257 1026.67 242.436C1029.43 244.463 1034.21 248.285 1037.3 250.929C1044.08 256.729 1050.69 259.216 1056.68 258.221C1065.53 256.754 1082.56 249.128 1093.34 241.806C1110.95 229.844 1126.39 206.641 1129.31 187.722C1131.34 174.558 1126.54 164.678 1115.92 160.157C1110.57 157.88 1093.65 157.309 1087.13 159.186ZM771.788 164.246C764.232 165.889 760.843 167.616 756.73 171.918C752.504 176.339 751.416 179.551 751.432 187.568C751.47 206.256 768.136 232.122 788.854 245.647C797.84 251.513 811.076 257.232 821.999 259.969C829.618 261.879 830.387 261.903 835.499 260.406C839.998 259.088 842.903 257.022 852.598 248.246C867.364 234.879 867.98 232.808 861.225 219.253C848.666 194.05 818.181 169.627 792.482 164.179C784.495 162.486 779.809 162.501 771.788 164.246ZM879.919 168.91C866.406 175.763 864.041 179.501 866.93 189.44C870.626 202.153 878.696 213.813 886.584 217.837C898.124 223.725 912.485 215.433 914.081 201.962C914.848 195.482 912.782 188.864 906.769 178.545C898.067 163.609 893.56 161.992 879.919 168.91ZM978.761 177.182C972.256 180.059 962.688 195.325 960.359 206.542C958.31 216.41 961.898 224.87 969.742 228.667C978.839 233.071 988.846 230.725 995.89 222.537C1001.16 216.405 1007.66 202.416 1008.21 195.989C1008.64 191.015 1008.48 190.547 1005.19 187.489C1001.57 184.121 988.761 177.229 984.419 176.313C983.044 176.023 980.498 176.414 978.761 177.182ZM933.436 187.003C929.786 195.298 928.946 206.32 929.148 243.253C929.254 262.503 929.734 285.453 930.216 294.253C930.841 305.683 930.431 335.959 928.782 400.253C924.495 567.373 924.543 564.802 925.642 568.114C927.288 573.074 933.031 578.418 938.081 579.689C946.444 581.795 955.899 576.832 958.535 568.953C960.063 564.386 960.205 568.865 955.282 466.253C951.728 392.183 951.097 371.48 950.375 305.253C949.638 237.698 948.981 218.588 946.906 204.253C944.865 190.162 941.742 182.753 937.842 182.753C935.819 182.753 934.929 183.612 933.436 187.003ZM733.419 252.31C719.634 256.113 712.992 267.459 712.963 287.253C712.941 302.614 717.798 316.018 730.103 334.554C745.373 357.556 776.813 381.894 796.489 385.944C801.405 386.956 802.516 386.865 805.963 385.172C808.11 384.116 811.835 380.778 814.239 377.753C816.643 374.728 821.562 368.653 825.17 364.253C833.16 354.507 834.73 351.017 834.643 343.202C834.564 336.21 832.132 328.385 825.873 314.992C812.051 285.413 789.179 264.25 760.919 254.892C749.515 251.115 740.738 250.291 733.419 252.31ZM1129.81 251.788C1122.64 253.062 1111.09 257.312 1103.42 261.494C1080.29 274.108 1064.67 291.488 1052.73 317.906C1042.78 339.915 1042.52 348.732 1051.51 360.074C1054.2 363.473 1059.1 369.699 1062.39 373.91C1072.22 386.505 1075.82 388.225 1086.08 385.258C1106.5 379.358 1135.14 356.542 1149.73 334.554C1167.04 308.489 1171.53 285.821 1163.21 266.492C1158.27 254.998 1144.88 249.106 1129.81 251.788ZM1000.6 254.891C996.164 257.088 985.673 268.164 979.415 277.259C969.275 291.996 968.965 305.275 978.505 316.114C992.293 331.777 1013.78 325.621 1029.82 301.414C1038.91 287.692 1040.73 280.403 1036.78 273.638C1034.6 269.9 1019.07 257.555 1012.92 254.672C1007.76 252.255 1005.86 252.289 1000.6 254.891ZM871.783 255.038C867.471 257.49 851.243 271.994 849.364 275.076C845.438 281.514 847.025 288.016 855.522 300.307C868.2 318.648 885.111 327.98 897.973 323.735C903.201 322.01 910.266 315.229 913.061 309.253C919.335 295.838 913.996 282.335 895.183 264.039C890.537 259.521 885.511 255.358 884.013 254.789C880.391 253.412 874.43 253.533 871.783 255.038ZM566.919 340.357C561.692 341.619 550.333 345.944 546.353 348.188C531.027 356.827 518.592 373.1 513.826 390.753C511.513 399.321 511.47 415.054 513.736 423.753C519.612 446.312 537.109 465.225 558.788 472.452C565.915 474.827 568.524 475.167 579.919 475.207C590.955 475.246 593.977 474.9 599.919 472.918C611.074 469.197 618.342 464.805 626.932 456.593C636.111 447.818 641.327 439.694 645.128 428.253C647.437 421.304 647.786 418.611 647.786 407.753C647.786 396.895 647.437 394.202 645.128 387.253C638.203 366.41 623.534 351.155 603.027 343.472C595.764 340.751 593.565 340.405 581.919 340.155C574.769 340.001 568.019 340.092 566.919 340.357ZM855.419 362.874C851.677 364.361 848.098 368.143 839.361 379.84C827.87 395.224 826.563 399.288 830.495 407.409C833.83 414.299 852.548 430.919 864.419 437.532C880.154 446.296 895.902 444.337 907.395 432.185C917.023 422.005 918.365 411.403 911.743 397.823C906.207 386.469 887.242 370.192 872.419 364.071C866.645 361.687 859.644 361.194 855.419 362.874ZM1007.42 364.071C992.596 370.192 973.631 386.469 968.095 397.823C961.473 411.403 962.815 422.005 972.443 432.185C983.936 444.337 999.684 446.296 1015.42 437.532C1027.29 430.919 1046.01 414.299 1049.34 407.409C1051.81 402.311 1051.95 398.963 1049.9 394.058C1048.18 389.943 1034.03 370.644 1029.74 366.567C1024.08 361.184 1016.47 360.333 1007.42 364.071Z" fill="black"/>
</svg>
